<svg width="72" height="40" viewBox="0 0 72 40" fill="none" xmlns="http://www.w3.org/2000/svg">
<path d="M5.54667 25.28C7.19111 25.28 8.44444 24.8222 9.30667 23.9067C10.1778 22.9822 10.6133 21.64 10.6133 19.88C10.6133 18.7956 10.3067 17.8756 9.69333 17.12C9.08889 16.3644 8.13778 15.7111 6.84 15.16C6.71556 15.08 6.52889 14.9778 6.28 14.8533C6.04 14.72 5.84889 14.6089 5.70667 14.52C5.57333 14.4311 5.42667 14.3244 5.26667 14.2C5.10667 14.0756 4.99111 13.9378 4.92 13.7867C4.84889 13.6356 4.81333 13.4667 4.81333 13.28C4.81333 12.5689 5.38222 12.2133 6.52 12.2133C6.99111 12.2133 7.48444 12.3156 8 12.52C8.52444 12.7156 8.96 13.0178 9.30667 13.4267L9.97333 10.8533C9.94667 10.8089 9.90222 10.7511 9.84 10.68C9.77778 10.6 9.62667 10.4667 9.38667 10.28C9.15556 10.0844 8.89778 9.91556 8.61333 9.77333C8.32889 9.63111 7.93333 9.50222 7.42667 9.38667C6.92889 9.26222 6.39556 9.2 5.82667 9.2C2.24444 9.2 0.453333 10.7867 0.453333 13.96C0.453333 14.5467 0.542222 15.0978 0.72 15.6133C0.897778 16.12 1.10222 16.5378 1.33333 16.8667C1.56444 17.1867 1.86222 17.4978 2.22667 17.8C2.6 18.0933 2.89778 18.3067 3.12 18.44C3.34222 18.5644 3.61333 18.7067 3.93333 18.8667C4.81333 19.2933 5.43111 19.6578 5.78667 19.96C6.15111 20.2622 6.33333 20.6267 6.33333 21.0533C6.33333 21.4533 6.17333 21.7289 5.85333 21.88C5.54222 22.0311 5.03111 22.1067 4.32 22.1067C3.60889 22.1067 2.94667 21.9289 2.33333 21.5733C1.72 21.2089 1.23111 20.7822 0.866667 20.2933L0.533333 23.5333C0.702222 23.7111 0.911111 23.8889 1.16 24.0667C1.41778 24.2444 1.74667 24.4311 2.14667 24.6267C2.54667 24.8222 3.04 24.9778 3.62667 25.0933C4.22222 25.2178 4.86222 25.28 5.54667 25.28ZM17.5328 23.68C16.715 23.68 16.3061 22.84 16.3061 21.16V16.8267C16.3061 16.2578 16.4128 15.8178 16.6261 15.5067C16.8395 15.1956 17.1373 15.04 17.5195 15.04C18.3373 15.04 18.7461 15.9067 18.7461 17.64V21.8533C18.7461 22.4222 18.6395 22.8711 18.4261 23.2C18.2217 23.52 17.9239 23.68 17.5328 23.68ZM17.4261 25.28C19.5328 25.28 21.075 24.7911 22.0528 23.8133C23.0395 22.8356 23.5328 21.3244 23.5328 19.28C23.5328 17.3067 23.0661 15.8356 22.1328 14.8667C21.2084 13.8889 19.7017 13.4 17.6128 13.4C15.4706 13.4 13.9239 13.9111 12.9728 14.9333C12.0217 15.9467 11.5461 17.4578 11.5461 19.4667C11.5461 21.4933 12.0173 22.9689 12.9595 23.8933C13.9017 24.8178 15.3906 25.28 17.4261 25.28ZM33.9053 23.8933L33.2386 22.08C32.9364 22.32 32.5498 22.4933 32.0786 22.6C31.6164 22.7067 31.1631 22.76 30.7186 22.76C30.5231 22.76 30.3586 22.7511 30.2253 22.7333C30.092 22.7156 29.9186 22.6489 29.7053 22.5333C29.5009 22.4178 29.3364 22.2578 29.212 22.0533C29.0875 21.84 28.9764 21.5244 28.8786 21.1067C28.7809 20.68 28.732 20.1689 28.732 19.5733C28.732 18.2044 28.8831 17.2444 29.1853 16.6933C29.4964 16.1333 30.0564 15.8533 30.8653 15.8533C30.9898 15.8533 31.0875 15.8622 31.1586 15.88L31.9186 17.92L33.812 17.9067L34.012 14.7733C34.012 14.7733 33.9186 14.68 33.732 14.4933C32.8786 13.7556 31.6786 13.3867 30.132 13.3867C29.332 13.3867 28.5853 13.5289 27.892 13.8133C27.2075 14.0889 26.6075 14.4844 26.092 15C25.5853 15.5067 25.1853 16.1467 24.892 16.92C24.5986 17.6933 24.452 18.5511 24.452 19.4933C24.452 21.2356 24.9275 22.6356 25.8786 23.6933C26.8386 24.7511 28.2209 25.28 30.0253 25.28C30.5586 25.28 31.0564 25.2311 31.5186 25.1333C31.9898 25.0444 32.3631 24.9333 32.6386 24.8C32.9231 24.6578 33.1631 24.52 33.3586 24.3867C33.5631 24.2444 33.7053 24.1289 33.7853 24.04L33.9053 23.8933ZM35.3369 25H39.6302V13.6667H37.4035L34.5369 14.4533V15.88L35.3369 16.3733V25ZM37.2702 12.44H37.7769L40.0569 10.24V9.77333L37.7769 7.58667H37.2702L35.0835 9.77333V10.24L37.2702 12.44ZM47.4564 18.1067H45.4297V16.9867C45.4297 16.6667 45.4386 16.4044 45.4564 16.2C45.483 15.9867 45.5364 15.7822 45.6164 15.5867C45.6964 15.3822 45.8208 15.2356 45.9897 15.1467C46.1586 15.0489 46.3764 15 46.643 15C46.9541 15 47.1675 15.2356 47.283 15.7067C47.3986 16.1778 47.4564 16.9778 47.4564 18.1067ZM46.3897 25.28C46.923 25.28 47.483 25.2178 48.0697 25.0933C48.6564 24.9689 49.2652 24.7289 49.8964 24.3733C50.5364 24.0089 51.0208 23.56 51.3497 23.0267L50.563 21.68C50.3141 21.9111 50.003 22.1111 49.6297 22.28C49.2652 22.4489 48.9008 22.5733 48.5364 22.6533C48.1808 22.7333 47.8475 22.7733 47.5364 22.7733C47.2164 22.7733 46.9452 22.7467 46.723 22.6933C46.5008 22.64 46.283 22.5333 46.0697 22.3733C45.8564 22.2133 45.6919 21.9644 45.5764 21.6267C45.4697 21.2889 45.4164 20.8578 45.4164 20.3333V20.08H51.5097V18.6C51.5097 16.7778 51.1319 15.4578 50.3764 14.64C49.6208 13.8133 48.3675 13.4 46.6164 13.4C44.7941 13.4 43.3764 13.9111 42.363 14.9333C41.3497 15.9556 40.843 17.4622 40.843 19.4533C40.843 20.2889 40.9408 21.0489 41.1364 21.7333C41.3319 22.4089 41.6386 23.0178 42.0564 23.56C42.483 24.1022 43.0608 24.5244 43.7897 24.8267C44.5275 25.1289 45.3941 25.28 46.3897 25.28ZM56.0741 25.28C56.6785 25.28 57.2252 25.2133 57.7141 25.08C58.2118 24.9467 58.5674 24.8178 58.7807 24.6933C58.9941 24.56 59.1674 24.4267 59.3007 24.2933V22.48C59.203 22.56 59.0785 22.6222 58.9274 22.6667C58.7763 22.7111 58.6074 22.7333 58.4207 22.7333C57.9941 22.7333 57.6785 22.6178 57.4741 22.3867C57.2696 22.1556 57.1674 21.6844 57.1674 20.9733V16.0133H59.3941V13.6667H57.2074V10.56H54.8607L53.5007 13.6667L51.9274 14.16V16.0133H52.8474V20.5467C52.8474 22.2622 53.083 23.48 53.5541 24.2C54.0341 24.92 54.8741 25.28 56.0741 25.28ZM66.0379 29.5867C67.789 29.5867 69.0824 29.0533 69.9179 27.9867C70.7535 26.92 71.1713 25.4044 71.1713 23.44V13.6667H66.0913V15.2L66.8246 15.68V21.9467C66.7001 22.0533 66.5801 22.1422 66.4646 22.2133C66.3579 22.2844 66.2468 22.3422 66.1312 22.3867C66.0157 22.4222 65.9001 22.44 65.7846 22.44C65.3935 22.44 65.1313 22.3467 64.9979 22.16C64.8735 21.9644 64.8112 21.6622 64.8112 21.2533V13.6667H59.9579V15.2L60.4379 15.68V20.4133C60.4379 22.1733 60.709 23.4267 61.2512 24.1733C61.7935 24.9111 62.7268 25.28 64.0512 25.28C64.3979 25.28 64.7357 25.2089 65.0646 25.0667C65.4024 24.9244 65.6868 24.7556 65.9179 24.56C66.149 24.3556 66.3535 24.1556 66.5312 23.96C66.7179 23.7556 66.8557 23.5822 66.9446 23.44L67.0779 23.2267V24.3733C67.069 24.9067 67.0112 25.3556 66.9046 25.72C66.7979 26.0844 66.6424 26.3644 66.4379 26.56C66.2335 26.7644 66.0024 26.9067 65.7446 26.9867C65.4868 27.0667 65.1801 27.1067 64.8246 27.1067C63.7046 27.1067 62.8868 26.96 62.3713 26.6667L61.6779 28.1067C62.0512 28.56 62.6424 28.92 63.4512 29.1867C64.2601 29.4533 65.1224 29.5867 66.0379 29.5867Z" fill="white"/>
<path d="M1.392 35.12C1.144 35.12 0.908 35.052 0.684 34.916C0.46 34.772 0.292 34.556 0.18 34.268C0.14 34.164 0.112 34.056 0.096 33.944C0.08 33.824 0.072 33.708 0.072 33.596C0.072 33.484 0.092 33.428 0.132 33.428C0.18 33.428 0.204 33.46 0.204 33.524C0.204 33.9 0.296 34.184 0.48 34.376C0.672 34.568 0.908 34.664 1.188 34.664C1.468 34.664 1.736 34.584 1.992 34.424C2.256 34.264 2.5 34.06 2.724 33.812C3.092 33.412 3.404 33.008 3.66 32.6C3.916 32.184 4.148 31.76 4.356 31.328C4.572 30.888 4.788 30.432 5.004 29.96C5.14 29.672 5.308 29.42 5.508 29.204C5.716 28.988 5.964 28.84 6.252 28.76L6.264 28.748H5.604C5.324 28.748 5.028 28.76 4.716 28.784C4.404 28.808 4.12 28.86 3.864 28.94C3.616 29.02 3.436 29.14 3.324 29.3C3.252 29.404 3.216 29.524 3.216 29.66C3.216 29.796 3.252 29.928 3.324 30.056C3.396 30.184 3.488 30.276 3.6 30.332C3.616 30.348 3.624 30.36 3.624 30.368C3.624 30.384 3.604 30.404 3.564 30.428C3.532 30.444 3.496 30.448 3.456 30.44C3.392 30.4 3.312 30.336 3.216 30.248C3.12 30.152 3.032 30.052 2.952 29.948C2.88 29.844 2.832 29.756 2.808 29.684C2.776 29.588 2.76 29.492 2.76 29.396C2.76 29.204 2.828 29.048 2.964 28.928C3.108 28.808 3.292 28.716 3.516 28.652C3.74 28.588 3.98 28.544 4.236 28.52C4.5 28.488 4.752 28.472 4.992 28.472C5.24 28.464 5.452 28.46 5.628 28.46H6.924C6.94 28.46 6.948 28.464 6.948 28.472C6.948 28.496 6.92 28.532 6.864 28.58C6.816 28.62 6.784 28.64 6.768 28.64C6.568 28.68 6.42 28.788 6.324 28.964C6.228 29.132 6.184 29.404 6.192 29.78C6.192 29.78 6.192 29.868 6.192 30.044C6.2 30.22 6.208 30.448 6.216 30.728C6.224 31.008 6.232 31.308 6.24 31.628C6.248 31.948 6.256 32.256 6.264 32.552C6.272 32.848 6.28 33.096 6.288 33.296V33.368L10.452 28.976C10.716 28.696 10.976 28.46 11.232 28.268C11.496 28.068 11.768 27.98 12.048 28.004C12.056 28.004 12.06 28.008 12.06 28.016C12.068 28.016 12.072 28.016 12.072 28.016C12.072 28.04 12.056 28.068 12.024 28.1C11.992 28.132 11.956 28.152 11.916 28.16C11.708 28.152 11.52 28.232 11.352 28.4C11.184 28.568 11.028 28.768 10.884 29C10.812 29.12 10.704 29.312 10.56 29.576C10.416 29.832 10.252 30.136 10.068 30.488C9.892 30.84 9.712 31.212 9.528 31.604C9.344 31.996 9.172 32.38 9.012 32.756C8.86 33.132 8.736 33.476 8.64 33.788C8.544 34.092 8.496 34.34 8.496 34.532C8.496 34.756 8.572 34.868 8.724 34.868C8.788 34.868 8.856 34.852 8.928 34.82C9.032 34.78 9.148 34.72 9.276 34.64C9.404 34.56 9.52 34.468 9.624 34.364C9.832 34.164 10.016 33.96 10.176 33.752C10.336 33.536 10.432 33.412 10.464 33.38C10.488 33.348 10.508 33.332 10.524 33.332C10.556 33.332 10.572 33.356 10.572 33.404C10.572 33.452 10.556 33.496 10.524 33.536C10.46 33.616 10.352 33.756 10.2 33.956C10.048 34.148 9.868 34.344 9.66 34.544C9.46 34.744 9.244 34.896 9.012 35C8.94 35.032 8.864 35.056 8.784 35.072C8.704 35.096 8.624 35.108 8.544 35.108C8.368 35.108 8.208 35.056 8.064 34.952C7.928 34.84 7.86 34.656 7.86 34.4C7.86 34.152 7.916 33.872 8.028 33.56C8.148 33.24 8.28 32.932 8.424 32.636C8.576 32.332 8.7 32.076 8.796 31.868C8.9 31.652 9.032 31.376 9.192 31.04C9.352 30.704 9.536 30.364 9.744 30.02L6.288 33.668C6.28 33.732 6.252 33.796 6.204 33.86C6.156 33.916 6.08 33.964 5.976 34.004C5.92 34.028 5.844 34.092 5.748 34.196C5.652 34.3 5.588 34.372 5.556 34.412C5.556 34.42 5.544 34.424 5.52 34.424C5.496 34.424 5.472 34.416 5.448 34.4C5.424 34.384 5.416 34.372 5.424 34.364C5.632 34.1 5.74 33.736 5.748 33.272L5.76 32.984C5.776 32.648 5.788 32.296 5.796 31.928C5.804 31.552 5.808 31.204 5.808 30.884C5.816 30.556 5.82 30.292 5.82 30.092C5.82 29.884 5.82 29.78 5.82 29.78C5.82 29.588 5.848 29.42 5.904 29.276C5.96 29.132 6.028 29.008 6.108 28.904C5.972 29.008 5.84 29.132 5.712 29.276C5.584 29.42 5.476 29.58 5.388 29.756C5.268 30.004 5.132 30.324 4.98 30.716C4.828 31.108 4.652 31.524 4.452 31.964C4.26 32.404 4.044 32.836 3.804 33.26C3.572 33.676 3.312 34.036 3.024 34.34C2.824 34.556 2.568 34.74 2.256 34.892C1.952 35.044 1.664 35.12 1.392 35.12ZM12.0009 35.036C11.9209 35.036 11.8529 35.02 11.7969 34.988C11.7409 34.956 11.7129 34.896 11.7129 34.808C11.7129 34.696 11.7409 34.568 11.7969 34.424C11.8529 34.28 11.9169 34.14 11.9889 34.004C12.0609 33.86 12.1249 33.744 12.1809 33.656C11.9009 33.952 11.6089 34.232 11.3049 34.496C11.1529 34.624 10.9849 34.744 10.8009 34.856C10.6169 34.968 10.4209 35.024 10.2129 35.024C10.1329 35.024 10.0769 35 10.0449 34.952C10.0129 34.896 9.99694 34.832 9.99694 34.76C9.99694 34.72 10.0009 34.692 10.0089 34.676C10.0489 34.364 10.1489 34.04 10.3089 33.704C10.4689 33.368 10.6649 33.052 10.8969 32.756C11.1289 32.46 11.3649 32.22 11.6049 32.036C11.8769 31.828 12.1769 31.724 12.5049 31.724H13.8849C13.9249 31.724 13.9449 31.74 13.9449 31.772C13.9449 31.836 13.9089 31.868 13.8369 31.868C13.7569 31.868 13.6769 31.92 13.5969 32.024C13.5169 32.12 13.4569 32.2 13.4169 32.264C13.3609 32.352 13.2729 32.5 13.1529 32.708C13.0329 32.916 12.9089 33.144 12.7809 33.392C12.6609 33.632 12.5569 33.856 12.4689 34.064C12.3809 34.272 12.3369 34.424 12.3369 34.52C12.3369 34.632 12.3929 34.688 12.5049 34.688C12.6249 34.688 12.7609 34.632 12.9129 34.52C13.0649 34.408 13.2169 34.272 13.3689 34.112C13.5289 33.944 13.6729 33.78 13.8009 33.62C13.9369 33.452 14.0449 33.32 14.1249 33.224C14.1729 33.272 14.1689 33.34 14.1129 33.428C14.0649 33.508 14.0209 33.572 13.9809 33.62C13.8209 33.828 13.6369 34.044 13.4289 34.268C13.2209 34.484 12.9929 34.668 12.7449 34.82C12.5049 34.964 12.2569 35.036 12.0009 35.036ZM10.7049 34.616C10.8009 34.616 10.9329 34.548 11.1009 34.412C11.2769 34.268 11.4649 34.092 11.6649 33.884C11.8649 33.668 12.0529 33.444 12.2289 33.212C12.4049 32.972 12.5489 32.756 12.6609 32.564C12.7809 32.364 12.8409 32.212 12.8409 32.108C12.8409 32.02 12.8129 31.96 12.7569 31.928C12.7089 31.896 12.6449 31.88 12.5649 31.88C12.4369 31.88 12.2969 31.928 12.1449 32.024C12.0009 32.112 11.8849 32.2 11.7969 32.288C11.7009 32.376 11.5849 32.516 11.4489 32.708C11.3209 32.892 11.1929 33.096 11.0649 33.32C10.9369 33.544 10.8289 33.76 10.7409 33.968C10.6529 34.176 10.6089 34.344 10.6089 34.472C10.6089 34.568 10.6409 34.616 10.7049 34.616ZM13.9683 35.18C13.9363 35.18 13.9363 35.144 13.9683 35.072C14.0083 35 14.0443 34.92 14.0763 34.832C14.1163 34.744 14.1563 34.648 14.1963 34.544C14.2763 34.352 14.3643 34.136 14.4603 33.896C14.5563 33.656 14.6483 33.424 14.7363 33.2C14.8243 32.968 14.9003 32.772 14.9643 32.612C15.0363 32.444 15.0843 32.336 15.1083 32.288C14.9963 32.408 14.8603 32.56 14.7003 32.744C14.5483 32.92 14.4043 33.092 14.2683 33.26C14.1323 33.428 14.0283 33.56 13.9563 33.656C13.9323 33.688 13.9123 33.704 13.8963 33.704C13.8803 33.704 13.8723 33.684 13.8723 33.644C13.8723 33.58 13.8923 33.52 13.9323 33.464C14.0843 33.272 14.2523 33.056 14.4363 32.816C14.6283 32.576 14.8003 32.356 14.9523 32.156C15.1043 31.948 15.2003 31.812 15.2403 31.748C15.3283 31.732 15.4563 31.708 15.6243 31.676C15.8003 31.644 15.9203 31.6 15.9843 31.544C16.0083 31.52 16.0323 31.508 16.0563 31.508C16.0723 31.508 16.0803 31.524 16.0803 31.556C16.0883 31.58 16.0803 31.608 16.0563 31.64C16.0083 31.696 15.9243 31.828 15.8043 32.036C15.6923 32.236 15.5683 32.46 15.4323 32.708C15.3043 32.956 15.1843 33.18 15.0723 33.38C15.1683 33.252 15.2723 33.128 15.3843 33.008C15.4963 32.888 15.6043 32.772 15.7083 32.66C15.8043 32.564 15.9363 32.444 16.1043 32.3C16.2723 32.156 16.4483 32.024 16.6323 31.904C16.8163 31.784 16.9763 31.716 17.1123 31.7C17.1443 31.692 17.1723 31.688 17.1963 31.688C17.2283 31.688 17.2523 31.688 17.2683 31.688C17.4443 31.688 17.5323 31.752 17.5323 31.88C17.5323 31.976 17.4803 32.104 17.3763 32.264C17.3203 32.352 17.2323 32.5 17.1123 32.708C17.0003 32.908 16.8843 33.128 16.7643 33.368C16.6523 33.6 16.5523 33.82 16.4643 34.028C16.3843 34.228 16.3443 34.376 16.3443 34.472C16.3443 34.584 16.4003 34.64 16.5123 34.64C16.6483 34.64 16.7963 34.572 16.9563 34.436C17.1243 34.3 17.3043 34.128 17.4963 33.92C17.6883 33.704 17.8803 33.476 18.0723 33.236C18.0883 33.252 18.0963 33.28 18.0963 33.32C18.0963 33.376 18.0763 33.432 18.0363 33.488C18.0043 33.536 17.9723 33.58 17.9403 33.62C17.8603 33.724 17.7523 33.856 17.6163 34.016C17.4883 34.168 17.3563 34.32 17.2203 34.472C17.0843 34.616 16.9603 34.732 16.8483 34.82C16.7683 34.876 16.6643 34.936 16.5363 35C16.4083 35.064 16.2803 35.096 16.1523 35.096C16.0083 35.096 15.9083 35.06 15.8523 34.988C15.7963 34.908 15.7683 34.812 15.7683 34.7C15.7683 34.572 15.7923 34.436 15.8403 34.292C15.8883 34.148 15.9403 34.012 15.9963 33.884C16.0603 33.748 16.1083 33.648 16.1403 33.584C16.2843 33.304 16.4163 33.04 16.5363 32.792C16.6563 32.544 16.7403 32.368 16.7883 32.264C16.8123 32.216 16.8243 32.176 16.8243 32.144C16.8243 32.088 16.7803 32.084 16.6923 32.132C16.6043 32.18 16.4963 32.252 16.3683 32.348C16.2483 32.444 16.1363 32.54 16.0323 32.636C15.9283 32.724 15.8603 32.784 15.8283 32.816C15.5323 33.128 15.2723 33.476 15.0483 33.86C14.8323 34.236 14.6483 34.624 14.4963 35.024C14.3923 35.032 14.2883 35.06 14.1843 35.108C14.0803 35.156 14.0083 35.18 13.9683 35.18ZM19.4892 35.036C19.4092 35.036 19.3412 35.02 19.2852 34.988C19.2292 34.956 19.2012 34.896 19.2012 34.808C19.2012 34.696 19.2292 34.568 19.2852 34.424C19.3412 34.28 19.4052 34.14 19.4772 34.004C19.5492 33.86 19.6132 33.744 19.6692 33.656C19.3892 33.952 19.0972 34.232 18.7932 34.496C18.6412 34.624 18.4732 34.744 18.2892 34.856C18.1052 34.968 17.9092 35.024 17.7012 35.024C17.6212 35.024 17.5652 35 17.5332 34.952C17.5012 34.896 17.4852 34.832 17.4852 34.76C17.4852 34.72 17.4892 34.692 17.4972 34.676C17.5372 34.364 17.6372 34.04 17.7972 33.704C17.9572 33.368 18.1532 33.052 18.3852 32.756C18.6172 32.46 18.8532 32.22 19.0932 32.036C19.3652 31.828 19.6652 31.724 19.9932 31.724H21.3732C21.4132 31.724 21.4332 31.74 21.4332 31.772C21.4332 31.836 21.3972 31.868 21.3252 31.868C21.2452 31.868 21.1652 31.92 21.0852 32.024C21.0052 32.12 20.9452 32.2 20.9052 32.264C20.8492 32.352 20.7612 32.5 20.6412 32.708C20.5212 32.916 20.3972 33.144 20.2692 33.392C20.1492 33.632 20.0452 33.856 19.9572 34.064C19.8692 34.272 19.8252 34.424 19.8252 34.52C19.8252 34.632 19.8812 34.688 19.9932 34.688C20.1132 34.688 20.2492 34.632 20.4012 34.52C20.5532 34.408 20.7052 34.272 20.8572 34.112C21.0172 33.944 21.1612 33.78 21.2892 33.62C21.4252 33.452 21.5332 33.32 21.6132 33.224C21.6612 33.272 21.6572 33.34 21.6012 33.428C21.5532 33.508 21.5092 33.572 21.4692 33.62C21.3092 33.828 21.1252 34.044 20.9172 34.268C20.7092 34.484 20.4812 34.668 20.2332 34.82C19.9932 34.964 19.7452 35.036 19.4892 35.036ZM18.1932 34.616C18.2892 34.616 18.4212 34.548 18.5892 34.412C18.7652 34.268 18.9532 34.092 19.1532 33.884C19.3532 33.668 19.5412 33.444 19.7172 33.212C19.8932 32.972 20.0372 32.756 20.1492 32.564C20.2692 32.364 20.3292 32.212 20.3292 32.108C20.3292 32.02 20.3012 31.96 20.2452 31.928C20.1972 31.896 20.1332 31.88 20.0532 31.88C19.9252 31.88 19.7852 31.928 19.6332 32.024C19.4892 32.112 19.3732 32.2 19.2852 32.288C19.1892 32.376 19.0732 32.516 18.9372 32.708C18.8092 32.892 18.6812 33.096 18.5532 33.32C18.4252 33.544 18.3172 33.76 18.2292 33.968C18.1412 34.176 18.0972 34.344 18.0972 34.472C18.0972 34.568 18.1292 34.616 18.1932 34.616ZM19.2366 39.2C18.9326 39.2 18.6406 39.128 18.3606 38.984C18.0726 38.848 17.8606 38.636 17.7246 38.348C17.6686 38.244 17.6326 38.132 17.6166 38.012C17.6006 37.9 17.5926 37.788 17.5926 37.676V37.556C17.5926 37.492 17.6006 37.432 17.6166 37.376C17.6326 37.32 17.6766 37.292 17.7486 37.292C17.7646 37.292 17.7726 37.3 17.7726 37.316C17.7726 37.364 17.7686 37.412 17.7606 37.46C17.7526 37.508 17.7486 37.56 17.7486 37.616C17.7486 37.984 17.8686 38.264 18.1086 38.456C18.3406 38.648 18.6326 38.744 18.9846 38.744C19.1286 38.744 19.2766 38.728 19.4286 38.696C19.5806 38.664 19.7206 38.62 19.8486 38.564C20.3606 38.348 20.8046 38.036 21.1806 37.628C21.5646 37.22 21.8966 36.76 22.1766 36.248C22.4646 35.736 22.7166 35.212 22.9326 34.676C23.1566 34.132 23.3646 33.62 23.5566 33.14C23.3886 33.412 23.2046 33.656 23.0046 33.872C22.8046 34.08 22.5806 34.288 22.3326 34.496C22.1806 34.624 22.0126 34.744 21.8286 34.856C21.6526 34.968 21.4606 35.024 21.2526 35.024C21.1726 35.024 21.1166 35 21.0846 34.952C21.0526 34.896 21.0366 34.832 21.0366 34.76V34.676C21.0766 34.364 21.1766 34.04 21.3366 33.704C21.5046 33.368 21.7046 33.052 21.9366 32.756C22.1686 32.46 22.4046 32.22 22.6446 32.036C22.9166 31.828 23.2166 31.724 23.5446 31.724H24.9246C24.9646 31.724 24.9846 31.74 24.9846 31.772C24.9846 31.836 24.9486 31.868 24.8766 31.868C24.7886 31.868 24.7046 31.904 24.6246 31.976C24.5446 32.048 24.4846 32.116 24.4446 32.18C24.3646 32.308 24.2606 32.504 24.1326 32.768C24.0046 33.032 23.8646 33.336 23.7126 33.68C23.5606 34.016 23.4086 34.36 23.2566 34.712C23.1046 35.056 22.9646 35.38 22.8366 35.684C22.6446 36.14 22.4246 36.584 22.1766 37.016C21.9366 37.456 21.6486 37.848 21.3126 38.192C20.9846 38.544 20.5926 38.82 20.1366 39.02C19.8646 39.14 19.5646 39.2 19.2366 39.2ZM21.7446 34.616C21.8406 34.616 21.9726 34.548 22.1406 34.412C22.3086 34.268 22.4926 34.092 22.6926 33.884C22.8926 33.668 23.0806 33.444 23.2566 33.212C23.4326 32.972 23.5766 32.756 23.6886 32.564C23.8086 32.364 23.8686 32.212 23.8686 32.108C23.8686 32.02 23.8406 31.96 23.7846 31.928C23.7366 31.896 23.6726 31.88 23.5926 31.88C23.4646 31.88 23.3286 31.928 23.1846 32.024C23.0406 32.112 22.9246 32.2 22.8366 32.288C22.7406 32.376 22.6246 32.516 22.4886 32.708C22.3606 32.892 22.2286 33.096 22.0926 33.32C21.9646 33.544 21.8566 33.76 21.7686 33.968C21.6806 34.176 21.6366 34.344 21.6366 34.472C21.6366 34.568 21.6726 34.616 21.7446 34.616ZM25.2443 35.096C24.9163 35.096 24.6883 35.032 24.5603 34.904C24.4323 34.776 24.3683 34.62 24.3683 34.436C24.3683 34.204 24.4283 33.956 24.5483 33.692C24.6763 33.428 24.7963 33.204 24.9083 33.02C25.0363 32.828 25.2083 32.628 25.4243 32.42C25.6403 32.212 25.8763 32.036 26.1323 31.892C26.3883 31.748 26.6363 31.676 26.8763 31.676C27.0843 31.676 27.2283 31.728 27.3083 31.832C27.3883 31.928 27.4283 32.044 27.4283 32.18C27.4283 32.428 27.3523 32.632 27.2003 32.792C27.0563 32.952 26.8763 33.084 26.6603 33.188C26.4443 33.284 26.2363 33.364 26.0363 33.428C25.9163 33.46 25.7763 33.492 25.6163 33.524C25.4563 33.556 25.3043 33.572 25.1603 33.572C25.1043 33.716 25.0603 33.856 25.0283 33.992C24.9963 34.128 24.9803 34.252 24.9803 34.364C24.9803 34.5 25.0123 34.612 25.0763 34.7C25.1483 34.788 25.2643 34.832 25.4243 34.832C25.4883 34.832 25.5643 34.824 25.6523 34.808C25.7403 34.792 25.8363 34.768 25.9403 34.736C26.1803 34.656 26.4163 34.528 26.6483 34.352C26.8803 34.176 27.0923 33.988 27.2843 33.788C27.4843 33.58 27.6363 33.408 27.7403 33.272C27.7643 33.296 27.7763 33.324 27.7763 33.356C27.7763 33.396 27.7483 33.46 27.6923 33.548C27.5323 33.772 27.3243 34.004 27.0683 34.244C26.8123 34.484 26.5283 34.688 26.2163 34.856C25.9043 35.016 25.5803 35.096 25.2443 35.096ZM25.2563 33.332C25.3603 33.34 25.4763 33.34 25.6043 33.332C25.7403 33.316 25.8723 33.288 26.0003 33.248C26.3283 33.152 26.5643 33 26.7083 32.792C26.8603 32.576 26.9363 32.384 26.9363 32.216C26.9363 32.12 26.9163 32.04 26.8763 31.976C26.8363 31.912 26.7723 31.88 26.6843 31.88C26.4523 31.88 26.2443 31.968 26.0603 32.144C25.8763 32.312 25.7163 32.508 25.5803 32.732C25.4443 32.956 25.3363 33.156 25.2563 33.332ZM27.6206 35.168C27.5886 35.168 27.5886 35.136 27.6206 35.072C27.6606 35 27.6966 34.92 27.7286 34.832C27.7686 34.744 27.8086 34.648 27.8486 34.544C27.9286 34.352 28.0166 34.136 28.1126 33.896C28.2086 33.656 28.3006 33.424 28.3886 33.2C28.4766 32.968 28.5526 32.772 28.6166 32.612C28.6886 32.444 28.7366 32.336 28.7606 32.288C28.6486 32.408 28.5126 32.56 28.3526 32.744C28.2006 32.92 28.0566 33.092 27.9206 33.26C27.7846 33.428 27.6806 33.56 27.6086 33.656C27.5846 33.688 27.5646 33.704 27.5486 33.704C27.5326 33.704 27.5246 33.684 27.5246 33.644C27.5246 33.58 27.5446 33.52 27.5846 33.464C27.7366 33.272 27.9046 33.056 28.0886 32.816C28.2806 32.576 28.4526 32.356 28.6046 32.156C28.7566 31.948 28.8526 31.812 28.8926 31.748C28.9806 31.732 29.1086 31.708 29.2766 31.676C29.4526 31.644 29.5726 31.6 29.6366 31.544C29.6606 31.52 29.6846 31.508 29.7086 31.508C29.7246 31.508 29.7326 31.524 29.7326 31.556C29.7406 31.58 29.7326 31.608 29.7086 31.64C29.6606 31.688 29.5886 31.792 29.4926 31.952C29.4046 32.112 29.3046 32.296 29.1926 32.504C29.0806 32.712 28.9726 32.912 28.8686 33.104C28.9486 32.984 29.0526 32.844 29.1806 32.684C29.3166 32.516 29.4646 32.356 29.6246 32.204C29.7846 32.044 29.9446 31.912 30.1046 31.808C30.2726 31.704 30.4286 31.652 30.5726 31.652C30.6766 31.652 30.7646 31.676 30.8366 31.724C30.9086 31.764 30.9646 31.84 31.0046 31.952C31.0286 32.008 31.0406 32.072 31.0406 32.144C31.0406 32.28 31.0046 32.412 30.9326 32.54C30.8686 32.66 30.8206 32.752 30.7886 32.816C30.7806 32.84 30.7526 32.864 30.7046 32.888C30.6566 32.904 30.6366 32.896 30.6446 32.864C30.6526 32.824 30.6566 32.784 30.6566 32.744C30.6646 32.704 30.6686 32.66 30.6686 32.612C30.6686 32.476 30.6406 32.352 30.5846 32.24C30.5366 32.128 30.4446 32.072 30.3086 32.072C30.1806 32.072 30.0246 32.152 29.8406 32.312C29.6566 32.472 29.4726 32.656 29.2886 32.864C29.0566 33.136 28.8726 33.396 28.7366 33.644C28.6006 33.884 28.4886 34.12 28.4006 34.352C28.3526 34.48 28.3046 34.608 28.2566 34.736C28.2086 34.856 28.1726 34.952 28.1486 35.024C28.0446 35.032 27.9406 35.056 27.8366 35.096C27.7326 35.144 27.6606 35.168 27.6206 35.168Z" fill="white"/>
</svg>
