<svg width="18" height="27" viewBox="0 0 18 27" fill="none" xmlns="http://www.w3.org/2000/svg">
<path d="M8.96842 26.448C11.5995 26.448 13.6049 25.7156 14.9844 24.2507C16.3782 22.7716 17.0751 20.624 17.0751 17.808C17.0751 16.0729 16.5844 14.6009 15.6031 13.392C14.636 12.1831 13.1142 11.1378 11.0378 10.256C10.8386 10.128 10.54 9.96444 10.1418 9.76533C9.75775 9.552 9.45197 9.37422 9.22442 9.232C9.01108 9.08978 8.77642 8.91911 8.52042 8.72C8.26442 8.52089 8.07953 8.30044 7.96575 8.05867C7.85197 7.81689 7.79508 7.54667 7.79508 7.248C7.79508 6.11022 8.70531 5.54133 10.5258 5.54133C11.2795 5.54133 12.0689 5.70489 12.8938 6.032C13.7329 6.34489 14.4297 6.82844 14.9844 7.48267L16.0511 3.36533C16.0084 3.29422 15.9373 3.20178 15.8377 3.088C15.7382 2.96 15.4964 2.74667 15.1124 2.448C14.7426 2.13511 14.3302 1.86489 13.8751 1.63733C13.42 1.40978 12.7871 1.20356 11.9764 1.01867C11.18 0.819557 10.3266 0.720001 9.41642 0.720001C3.68486 0.720001 0.819083 3.25867 0.819083 8.336C0.819083 9.27467 0.961306 10.1564 1.24575 10.9813C1.53019 11.792 1.85731 12.4604 2.22708 12.9867C2.59686 13.4987 3.07331 13.9964 3.65642 14.48C4.25375 14.9493 4.73019 15.2907 5.08575 15.504C5.44131 15.7031 5.87508 15.9307 6.38708 16.1867C7.79508 16.8693 8.78353 17.4524 9.35242 17.936C9.93553 18.4196 10.2271 19.0027 10.2271 19.6853C10.2271 20.3253 9.97108 20.7662 9.45908 21.008C8.96131 21.2498 8.14353 21.3707 7.00575 21.3707C5.86797 21.3707 4.80842 21.0862 3.82708 20.5173C2.84575 19.9342 2.06353 19.2516 1.48042 18.4693L0.947083 23.6533C1.21731 23.9378 1.55153 24.2222 1.94975 24.5067C2.36219 24.7911 2.88842 25.0898 3.52842 25.4027C4.16842 25.7156 4.95775 25.9644 5.89642 26.1493C6.84931 26.3484 7.87331 26.448 8.96842 26.448Z" fill="#9100C5"/>
</svg>
